<?xml version="1.0" standalone="no"?>
<!DOCTYPE svg PUBLIC "-//W3C//DTD SVG 20010904//EN"
 "http://www.w3.org/TR/2001/REC-SVG-20010904/DTD/svg10.dtd">
<svg version="1.0" xmlns="http://www.w3.org/2000/svg"
 width="400.000000pt" height="400.000000pt" viewBox="0 0 400.000000 400.000000"
 preserveAspectRatio="xMidYMid meet">
<metadata>
Created by potrace 1.11, written by Peter Selinger 2001-2013
</metadata>
<g transform="translate(0.000000,400.000000) scale(0.100000,-0.100000)"
fill="#000000" stroke="none">
<path d="M1883 3931 c-128 -44 -216 -167 -222 -311 -3 -73 17 -133 68 -210 60
-90 132 -237 146 -300 18 -77 34 -163 38 -202 l4 -47 -686 -3 -686 -3 -57 -28
c-72 -35 -147 -117 -173 -189 -19 -51 -20 -89 -20 -938 -1 -919 -1 -921 40
-1001 30 -57 94 -116 157 -144 56 -25 84 -30 220 -34 17 -1 22 -18 33 -101 3
-25 8 -52 10 -60 3 -8 9 -46 15 -85 16 -115 20 -128 47 -163 28 -38 59 -52
109 -52 48 0 63 9 194 123 142 123 240 209 254 222 6 6 39 34 74 64 l63 54
967 1 967 1 55 26 c101 47 164 120 191 219 13 51 18 1753 5 1825 -23 119 -144
239 -262 259 -16 2 -328 5 -693 5 l-663 1 6 53 c12 100 26 163 56 247 28 80
107 228 136 257 38 38 63 132 59 218 -6 128 -94 251 -211 295 -69 25 -170 26
-241 1z"/>
</g>
</svg>
